<svg width="100" height="38" viewBox="0 0 100 38" fill="none" xmlns="http://www.w3.org/2000/svg">
<path d="M0 38H100V0H0V38Z" fill="#FFE100"/>
<path d="M94.8276 38H100V0H94.8276V38Z" fill="#FFA800"/>
<path d="M17.1289 9.11749H19.3906V21.1995C19.3906 22.8323 18.8984 24.1097 17.9141 25.0316C16.9375 25.9534 15.6328 26.4144 14 26.4144C12.3047 26.4144 10.9844 25.9808 10.0391 25.1136C9.09375 24.2464 8.62109 23.0316 8.62109 21.4691H10.8711C10.8711 22.4456 11.1367 23.2073 11.668 23.7542C12.207 24.3011 12.9844 24.5745 14 24.5745C14.9297 24.5745 15.6797 24.2816 16.25 23.6956C16.8281 23.1097 17.1211 22.2894 17.1289 21.2347V9.11749ZM28.25 18.5745C26.3203 18.0198 24.9141 17.3401 24.0312 16.5355C23.1562 15.723 22.7188 14.723 22.7188 13.5355C22.7188 12.1917 23.2539 11.0823 24.3242 10.2073C25.4023 9.32452 26.8008 8.88312 28.5195 8.88312C29.6914 8.88312 30.7344 9.10968 31.6484 9.56281C32.5703 10.0159 33.2812 10.6409 33.7812 11.4378C34.2891 12.2347 34.543 13.1058 34.543 14.0511H32.2812C32.2812 13.0198 31.9531 12.2112 31.2969 11.6253C30.6406 11.0316 29.7148 10.7347 28.5195 10.7347C27.4102 10.7347 26.543 10.9808 25.918 11.473C25.3008 11.9573 24.9922 12.6331 24.9922 13.5003C24.9922 14.1956 25.2852 14.7855 25.8711 15.2698C26.4648 15.7464 27.4688 16.1839 28.8828 16.5823C30.3047 16.9808 31.4141 17.4222 32.2109 17.9066C33.0156 18.3831 33.6094 18.9417 33.9922 19.5823C34.3828 20.223 34.5781 20.9769 34.5781 21.8441C34.5781 23.2269 34.0391 24.3362 32.9609 25.1722C31.8828 26.0003 30.4414 26.4144 28.6367 26.4144C27.4648 26.4144 26.3711 26.1917 25.3555 25.7464C24.3398 25.2933 23.5547 24.6761 23 23.8948C22.4531 23.1136 22.1797 22.2269 22.1797 21.2347H24.4414C24.4414 22.2659 24.8203 23.0823 25.5781 23.6839C26.3438 24.2776 27.3633 24.5745 28.6367 24.5745C29.8242 24.5745 30.7344 24.3323 31.3672 23.848C32 23.3636 32.3164 22.7034 32.3164 21.8675C32.3164 21.0316 32.0234 20.387 31.4375 19.9339C30.8516 19.473 29.7891 19.0198 28.25 18.5745ZM41.6445 19.8167H35.9258V18.0472H41.6445V19.8167ZM44.1055 26.18V9.11749H48.9219C50.4062 9.11749 51.7188 9.44562 52.8594 10.1019C54 10.7581 54.8789 11.6917 55.4961 12.9026C56.1211 14.1136 56.4375 15.5042 56.4453 17.0745V18.1644C56.4453 19.7737 56.1328 21.1839 55.5078 22.3948C54.8906 23.6058 54.0039 24.5355 52.8477 25.1839C51.6992 25.8323 50.3594 26.1644 48.8281 26.18H44.1055ZM46.3555 10.9691V24.3401H48.7227C50.457 24.3401 51.8047 23.8011 52.7656 22.723C53.7344 21.6448 54.2188 20.1097 54.2188 18.1175V17.1214C54.2188 15.1839 53.7617 13.68 52.8477 12.6097C51.9414 11.5316 50.6523 10.9847 48.9805 10.9691H46.3555ZM64.8828 18.5745C62.9531 18.0198 61.5469 17.3401 60.6641 16.5355C59.7891 15.723 59.3516 14.723 59.3516 13.5355C59.3516 12.1917 59.8867 11.0823 60.957 10.2073C62.0352 9.32452 63.4336 8.88312 65.1523 8.88312C66.3242 8.88312 67.3672 9.10968 68.2812 9.56281C69.2031 10.0159 69.9141 10.6409 70.4141 11.4378C70.9219 12.2347 71.1758 13.1058 71.1758 14.0511H68.9141C68.9141 13.0198 68.5859 12.2112 67.9297 11.6253C67.2734 11.0316 66.3477 10.7347 65.1523 10.7347C64.043 10.7347 63.1758 10.9808 62.5508 11.473C61.9336 11.9573 61.625 12.6331 61.625 13.5003C61.625 14.1956 61.918 14.7855 62.5039 15.2698C63.0977 15.7464 64.1016 16.1839 65.5156 16.5823C66.9375 16.9808 68.0469 17.4222 68.8438 17.9066C69.6484 18.3831 70.2422 18.9417 70.625 19.5823C71.0156 20.223 71.2109 20.9769 71.2109 21.8441C71.2109 23.2269 70.6719 24.3362 69.5938 25.1722C68.5156 26.0003 67.0742 26.4144 65.2695 26.4144C64.0977 26.4144 63.0039 26.1917 61.9883 25.7464C60.9727 25.2933 60.1875 24.6761 59.6328 23.8948C59.0859 23.1136 58.8125 22.2269 58.8125 21.2347H61.0742C61.0742 22.2659 61.4531 23.0823 62.2109 23.6839C62.9766 24.2776 63.9961 24.5745 65.2695 24.5745C66.457 24.5745 67.3672 24.3323 68 23.848C68.6328 23.3636 68.9492 22.7034 68.9492 21.8675C68.9492 21.0316 68.6562 20.387 68.0703 19.9339C67.4844 19.473 66.4219 19.0198 64.8828 18.5745Z" fill="black"/>
</svg>
